<svg xmlns="http://www.w3.org/2000/svg" xmlns:xlink="http://www.w3.org/1999/xlink" contentStyleType="text/css" data-diagram-type="CLASS" height="278px" preserveAspectRatio="none" style="width:289px;height:278px;background:#FFFFFF;" version="1.1" viewBox="0 0 289 278" width="289px" zoomAndPan="magnify"><defs/><g><!--class BlockProcessor--><g class="entity" data-entity="BlockProcessor" data-source-line="1" data-uid="ent0002" id="entity_BlockProcessor"><rect fill="#F1F1F1" height="48" rx="2.5" ry="2.5" style="stroke:#181818;stroke-width:0.5;" width="137.8477" x="68.67" y="7"/><ellipse cx="83.67" cy="23" fill="#ADD1B2" rx="11" ry="11" style="stroke:#181818;stroke-width:1;"/><path d="M86.6388,28.6406 Q86.0606,28.9375 85.42,29.0781 Q84.7794,29.2344 84.0763,29.2344 Q81.5763,29.2344 80.2481,27.5938 Q78.9356,25.9375 78.9356,22.8125 Q78.9356,19.6875 80.2481,18.0313 Q81.5763,16.375 84.0763,16.375 Q84.7794,16.375 85.42,16.5313 Q86.0763,16.6875 86.6388,16.9844 L86.6388,19.7031 Q86.0138,19.125 85.42,18.8594 Q84.8263,18.5781 84.2013,18.5781 Q82.8575,18.5781 82.17,19.6563 Q81.4825,20.7188 81.4825,22.8125 Q81.4825,24.9063 82.17,25.9844 Q82.8575,27.0469 84.2013,27.0469 Q84.8263,27.0469 85.42,26.7813 Q86.0138,26.5 86.6388,25.9219 L86.6388,28.6406 Z " fill="#000000"/><text fill="#000000" font-family="sans-serif" font-size="14" lengthAdjust="spacing" textLength="105.8477" x="97.67" y="27.8467">BlockProcessor</text><line style="stroke:#181818;stroke-width:0.5;" x1="69.67" x2="205.5177" y1="39" y2="39"/><line style="stroke:#181818;stroke-width:0.5;" x1="69.67" x2="205.5177" y1="47" y2="47"/></g><!--class DiagramBlock--><g class="entity" data-entity="DiagramBlock" data-source-line="2" data-uid="ent0003" id="entity_DiagramBlock"><rect fill="#F1F1F1" height="48" rx="2.5" ry="2.5" style="stroke:#181818;stroke-width:0.5;" width="129.9727" x="72.6" y="115"/><ellipse cx="87.6" cy="131" fill="#ADD1B2" rx="11" ry="11" style="stroke:#181818;stroke-width:1;"/><path d="M90.5688,136.6406 Q89.9906,136.9375 89.35,137.0781 Q88.7094,137.2344 88.0063,137.2344 Q85.5063,137.2344 84.1781,135.5938 Q82.8656,133.9375 82.8656,130.8125 Q82.8656,127.6875 84.1781,126.0313 Q85.5063,124.375 88.0063,124.375 Q88.7094,124.375 89.35,124.5313 Q90.0063,124.6875 90.5688,124.9844 L90.5688,127.7031 Q89.9438,127.125 89.35,126.8594 Q88.7563,126.5781 88.1313,126.5781 Q86.7875,126.5781 86.1,127.6563 Q85.4125,128.7188 85.4125,130.8125 Q85.4125,132.9063 86.1,133.9844 Q86.7875,135.0469 88.1313,135.0469 Q88.7563,135.0469 89.35,134.7813 Q89.9438,134.5 90.5688,133.9219 L90.5688,136.6406 Z " fill="#000000"/><text fill="#000000" font-family="sans-serif" font-size="14" lengthAdjust="spacing" textLength="97.9727" x="101.6" y="135.8467">DiagramBlock</text><line style="stroke:#181818;stroke-width:0.5;" x1="73.6" x2="201.5727" y1="147" y2="147"/><line style="stroke:#181818;stroke-width:0.5;" x1="73.6" x2="201.5727" y1="155" y2="155"/></g><!--class DitaaBlock--><g class="entity" data-entity="DitaaBlock" data-source-line="3" data-uid="ent0004" id="entity_DitaaBlock"><rect fill="#F1F1F1" height="48" rx="2.5" ry="2.5" style="stroke:#181818;stroke-width:0.5;" width="107.1816" x="7" y="223"/><ellipse cx="22" cy="239" fill="#ADD1B2" rx="11" ry="11" style="stroke:#181818;stroke-width:1;"/><path d="M24.9688,244.6406 Q24.3906,244.9375 23.75,245.0781 Q23.1094,245.2344 22.4063,245.2344 Q19.9063,245.2344 18.5781,243.5938 Q17.2656,241.9375 17.2656,238.8125 Q17.2656,235.6875 18.5781,234.0313 Q19.9063,232.375 22.4063,232.375 Q23.1094,232.375 23.75,232.5313 Q24.4063,232.6875 24.9688,232.9844 L24.9688,235.7031 Q24.3438,235.125 23.75,234.8594 Q23.1563,234.5781 22.5313,234.5781 Q21.1875,234.5781 20.5,235.6563 Q19.8125,236.7188 19.8125,238.8125 Q19.8125,240.9063 20.5,241.9844 Q21.1875,243.0469 22.5313,243.0469 Q23.1563,243.0469 23.75,242.7813 Q24.3438,242.5 24.9688,241.9219 L24.9688,244.6406 Z " fill="#000000"/><text fill="#000000" font-family="sans-serif" font-size="14" lengthAdjust="spacing" textLength="75.1816" x="36" y="243.8467">DitaaBlock</text><line style="stroke:#181818;stroke-width:0.5;" x1="8" x2="113.1816" y1="255" y2="255"/><line style="stroke:#181818;stroke-width:0.5;" x1="8" x2="113.1816" y1="263" y2="263"/></g><!--class PlantUmlBlock--><g class="entity" data-entity="PlantUmlBlock" data-source-line="4" data-uid="ent0005" id="entity_PlantUmlBlock"><rect fill="#F1F1F1" height="48" rx="2.5" ry="2.5" style="stroke:#181818;stroke-width:0.5;" width="132.9121" x="149.13" y="223"/><ellipse cx="164.13" cy="239" fill="#ADD1B2" rx="11" ry="11" style="stroke:#181818;stroke-width:1;"/><path d="M167.0988,244.6406 Q166.5206,244.9375 165.88,245.0781 Q165.2394,245.2344 164.5363,245.2344 Q162.0363,245.2344 160.7081,243.5938 Q159.3956,241.9375 159.3956,238.8125 Q159.3956,235.6875 160.7081,234.0313 Q162.0363,232.375 164.5363,232.375 Q165.2394,232.375 165.88,232.5313 Q166.5363,232.6875 167.0988,232.9844 L167.0988,235.7031 Q166.4738,235.125 165.88,234.8594 Q165.2863,234.5781 164.6613,234.5781 Q163.3175,234.5781 162.63,235.6563 Q161.9425,236.7188 161.9425,238.8125 Q161.9425,240.9063 162.63,241.9844 Q163.3175,243.0469 164.6613,243.0469 Q165.2863,243.0469 165.88,242.7813 Q166.4738,242.5 167.0988,241.9219 L167.0988,244.6406 Z " fill="#000000"/><text fill="#000000" font-family="sans-serif" font-size="14" lengthAdjust="spacing" textLength="100.9121" x="178.13" y="243.8467">PlantUmlBlock</text><line style="stroke:#181818;stroke-width:0.5;" x1="150.13" x2="281.0421" y1="255" y2="255"/><line style="stroke:#181818;stroke-width:0.5;" x1="150.13" x2="281.0421" y1="263" y2="263"/></g><!--reverse link BlockProcessor to DiagramBlock--><g class="link" data-entity-1="BlockProcessor" data-entity-2="DiagramBlock" data-source-line="6" data-uid="lnk6" id="link_BlockProcessor_DiagramBlock"><path codeLine="6" d="M137.59,73.26 C137.59,90.94 137.59,97.13 137.59,114.79" fill="none" id="BlockProcessor-backto-DiagramBlock" style="stroke:#181818;stroke-width:1;"/><polygon fill="none" points="137.59,55.26,131.59,73.26,143.59,73.26,137.59,55.26" style="stroke:#181818;stroke-width:1;"/></g><!--reverse link DiagramBlock to DitaaBlock--><g class="link" data-entity-1="DiagramBlock" data-entity-2="DitaaBlock" data-source-line="7" data-uid="lnk7" id="link_DiagramBlock_DitaaBlock"><path codeLine="7" d="M110.1127,177.8244 C97.2727,195.5044 90.28,205.13 77.45,222.79" fill="none" id="DiagramBlock-backto-DitaaBlock" style="stroke:#181818;stroke-width:1;"/><polygon fill="none" points="120.69,163.26,105.2579,174.2986,114.9675,181.3501,120.69,163.26" style="stroke:#181818;stroke-width:1;"/></g><!--reverse link DiagramBlock to PlantUmlBlock--><g class="link" data-entity-1="DiagramBlock" data-entity-2="PlantUmlBlock" data-source-line="8" data-uid="lnk8" id="link_DiagramBlock_PlantUmlBlock"><path codeLine="8" d="M165.373,177.7617 C178.373,195.4417 185.52,205.13 198.51,222.79" fill="none" id="DiagramBlock-backto-PlantUmlBlock" style="stroke:#181818;stroke-width:1;"/><polygon fill="none" points="154.71,163.26,160.5391,181.3161,170.2069,174.2074,154.71,163.26" style="stroke:#181818;stroke-width:1;"/></g><!--SRC=[Iyv9B2vMSCh9JyuEACfFJYqkpY_YIWOBkcGcfXSbveBbu48bYOd80W4vYNabeRav434kL7CKR6fqTL6DGUR0fE56OagY60y0]--></g></svg>